<svg xmlns="http://www.w3.org/2000/svg" width="50" height="125" fill="#000" xmlns:v="https://vecta.io/nano"><path d="M23.266 10.227c-1.332.507-2.509 1.62-3.35 3.167s-1.299 3.444-1.303 5.396v6.587c.004 1.952.462 3.849 1.303 5.396s2.018 2.661 3.35 3.167v2.635c-1.332.507-2.509 1.62-3.35 3.167s-1.299 3.444-1.303 5.396v6.587c.004 1.952.462 3.849 1.303 5.396s2.018 2.66 3.35 3.167v7.905h3.281V60.29c1.336-.496 2.518-1.606 3.36-3.156s1.297-3.452 1.293-5.407v-6.587c-.004-1.952-.462-3.849-1.303-5.396s-2.018-2.66-3.35-3.167v-2.635c1.336-.496 2.518-1.606 3.36-3.156s1.297-3.452 1.293-5.407V18.79c-.004-1.952-.462-3.849-1.303-5.396s-2.018-2.661-3.35-3.167V2.322h-3.28v7.905zm4.653 34.912v6.587a5.71 5.71 0 0 1-.369 2.024c-.24.621-.585 1.148-1.004 1.533v-3.557h-3.28v3.557c-.419-.385-.765-.912-1.004-1.533a5.71 5.71 0 0 1-.369-2.024v-6.587c-.001-.708.125-1.406.364-2.027s.587-1.148 1.008-1.53v3.557h3.281v-3.557c.419.385.765.912 1.004 1.533a5.71 5.71 0 0 1 .369 2.024zm0-26.349v6.587a5.71 5.71 0 0 1-.369 2.024c-.24.621-.585 1.148-1.004 1.533v-3.557h-3.28v3.557c-.419-.385-.765-.912-1.004-1.533s-.366-1.317-.369-2.024V18.79c-.001-.708.125-1.406.364-2.027s.587-1.148 1.008-1.53v3.557h3.281v-3.557c.419.385.765.912 1.004 1.533a5.71 5.71 0 0 1 .369 2.024z"/><path d="M23.454 64.71c-1.332.507-2.509 1.62-3.35 3.167s-1.299 3.444-1.303 5.396v6.587c.004 1.952.462 3.849 1.303 5.396s2.018 2.66 3.35 3.167v2.635c-1.332.507-2.509 1.62-3.35 3.167s-1.299 3.444-1.303 5.396v6.587c.004 1.952.462 3.848 1.303 5.396s2.018 2.661 3.35 3.167v7.905h3.281v-7.905c1.336-.496 2.518-1.606 3.36-3.156s1.297-3.452 1.293-5.407v-6.587c-.004-1.952-.462-3.849-1.303-5.396s-2.018-2.66-3.35-3.167v-2.635c1.336-.496 2.518-1.606 3.36-3.156s1.297-3.452 1.293-5.407v-6.587c-.004-1.952-.462-3.849-1.303-5.396s-2.018-2.66-3.35-3.167v-7.905h-3.28v7.905zm4.653 34.912v6.587c-.002.708-.129 1.403-.369 2.024s-.585 1.148-1.004 1.533v-3.557h-3.28v3.557c-.419-.385-.765-.912-1.004-1.533s-.366-1.316-.369-2.024v-6.587c-.001-.709.125-1.406.364-2.027s.587-1.148 1.008-1.53v3.557h3.281v-3.557c.419.385.764.912 1.004 1.533s.366 1.317.369 2.024zm0-26.349v6.587a5.71 5.71 0 0 1-.369 2.024c-.24.621-.585 1.148-1.004 1.533v-3.557h-3.28v3.557c-.419-.385-.765-.912-1.004-1.533a5.71 5.71 0 0 1-.369-2.024v-6.587c-.001-.708.125-1.406.364-2.027s.587-1.148 1.008-1.53v3.557h3.281v-3.557c.419.385.764.912 1.004 1.533a5.71 5.71 0 0 1 .369 2.024z"/></svg>