<svg xmlns="http://www.w3.org/2000/svg" width="236" height="50" fill="#000" xmlns:v="https://vecta.io/nano"><path d="M10.227 26.734c.507 1.332 1.62 2.509 3.167 3.35s3.444 1.299 5.396 1.303h6.587c1.952-.004 3.849-.462 5.396-1.303s2.661-2.018 3.167-3.35h2.635c.507 1.332 1.62 2.509 3.167 3.35s3.444 1.299 5.396 1.303h6.587c1.952-.004 3.849-.462 5.396-1.303s2.66-2.018 3.167-3.35h7.905v-3.28H60.29c-.496-1.336-1.606-2.518-3.156-3.36s-3.452-1.297-5.407-1.293h-6.587c-1.953.004-3.849.462-5.396 1.303s-2.66 2.018-3.167 3.35h-2.635c-.496-1.336-1.606-2.518-3.156-3.36s-3.452-1.297-5.407-1.293H18.79c-1.952.004-3.849.462-5.396 1.303s-2.661 2.018-3.167 3.35H2.322v3.281h7.905zm34.912-4.653h6.587a5.71 5.71 0 0 1 2.024.369c.621.24 1.148.585 1.533 1.004h-3.557v3.281h3.557c-.385.419-.912.765-1.533 1.004a5.71 5.71 0 0 1-2.024.369h-6.587c-.709.001-1.406-.125-2.028-.364s-1.148-.587-1.53-1.008h3.557v-3.28h-3.557c.385-.419.912-.765 1.533-1.004a5.71 5.71 0 0 1 2.024-.369zm-26.349 0h6.587a5.71 5.71 0 0 1 2.024.369c.621.24 1.148.585 1.533 1.004h-3.557v3.281h3.557c-.385.419-.912.765-1.533 1.004s-1.317.366-2.024.369H18.79c-.708.001-1.406-.125-2.027-.364s-1.148-.587-1.53-1.008h3.557v-3.28h-3.557c.385-.419.912-.765 1.533-1.004a5.71 5.71 0 0 1 2.024-.369z"/><path d="M64.71 26.546c.507 1.332 1.62 2.509 3.167 3.35s3.444 1.299 5.396 1.303h6.587c1.953-.004 3.849-.462 5.396-1.303s2.66-2.018 3.167-3.35h2.635c.507 1.332 1.62 2.509 3.167 3.35s3.444 1.299 5.396 1.303h6.587c1.952-.004 3.848-.462 5.396-1.303s2.66-2.018 3.167-3.35h7.905v-3.28h-7.905c-.496-1.336-1.606-2.518-3.156-3.36s-3.452-1.297-5.407-1.293h-6.587c-1.953.004-3.849.462-5.396 1.303s-2.66 2.018-3.167 3.35h-2.635c-.496-1.336-1.606-2.518-3.156-3.36s-3.452-1.297-5.407-1.293h-6.587c-1.952.004-3.849.462-5.396 1.303s-2.66 2.018-3.167 3.35h-7.905v3.281h7.905zm34.912-4.653h6.587c.707.002 1.403.129 2.024.369s1.148.585 1.533 1.004h-3.557v3.281h3.557c-.385.419-.912.765-1.533 1.004s-1.317.366-2.024.369h-6.587c-.709.001-1.406-.125-2.028-.364s-1.148-.587-1.53-1.008h3.557v-3.28h-3.557c.385-.419.912-.764 1.533-1.004s1.317-.366 2.024-.369zm-26.349 0h6.587c.708.002 1.403.129 2.024.369s1.148.585 1.533 1.004h-3.557v3.281h3.557c-.385.419-.912.765-1.533 1.004s-1.317.366-2.024.369h-6.587c-.708.001-1.406-.125-2.027-.364s-1.148-.587-1.53-1.008h3.557v-3.28h-3.557c.385-.419.912-.764 1.533-1.004a5.71 5.71 0 0 1 2.024-.369z"/><path d="M121.227 26.734c.507 1.332 1.62 2.509 3.167 3.35s3.444 1.299 5.396 1.303h6.587c1.953-.004 3.849-.462 5.397-1.303s2.66-2.018 3.167-3.35h2.635c.507 1.332 1.62 2.509 3.167 3.35s3.444 1.299 5.396 1.303h6.587c1.953-.004 3.849-.462 5.397-1.303s2.66-2.018 3.167-3.35h7.904v-3.28h-7.904c-.496-1.336-1.606-2.518-3.156-3.36s-3.452-1.297-5.408-1.293h-6.587c-1.952.004-3.848.462-5.396 1.303s-2.66 2.018-3.167 3.35h-2.635c-.496-1.336-1.606-2.518-3.156-3.36s-3.452-1.297-5.408-1.293h-6.587c-1.952.004-3.848.462-5.396 1.303s-2.66 2.018-3.167 3.35h-7.905v3.281h7.905zm34.912-4.653h6.587a5.71 5.71 0 0 1 2.025.369c.621.24 1.148.585 1.533 1.004h-3.558v3.281h3.558c-.385.419-.912.765-1.533 1.004s-1.317.366-2.025.369h-6.587a5.65 5.65 0 0 1-2.027-.364c-.622-.24-1.148-.587-1.53-1.008h3.557v-3.28h-3.557c.385-.419.912-.765 1.533-1.004a5.71 5.71 0 0 1 2.024-.369zm-26.349 0h6.587a5.71 5.71 0 0 1 2.025.369c.621.24 1.148.585 1.533 1.004h-3.558v3.281h3.558c-.385.419-.912.765-1.533 1.004s-1.317.366-2.025.369h-6.587a5.65 5.65 0 0 1-2.027-.364c-.622-.24-1.148-.587-1.53-1.008h3.557v-3.28h-3.557c.385-.419.912-.765 1.533-1.004a5.71 5.71 0 0 1 2.024-.369z"/><path d="M175.71 26.546c.507 1.332 1.62 2.509 3.167 3.35s3.444 1.299 5.397 1.303h6.587c1.952-.004 3.848-.462 5.396-1.303s2.66-2.018 3.167-3.35h2.635c.507 1.332 1.62 2.509 3.167 3.35s3.444 1.299 5.397 1.303h6.587c1.952-.004 3.848-.462 5.396-1.303s2.66-2.018 3.167-3.35h7.905v-3.28h-7.905c-.496-1.336-1.606-2.518-3.156-3.36s-3.452-1.297-5.407-1.293h-6.587c-1.953.004-3.849.462-5.397 1.303s-2.66 2.018-3.167 3.35h-2.635c-.496-1.336-1.606-2.518-3.156-3.36s-3.452-1.297-5.407-1.293h-6.587c-1.953.004-3.849.462-5.397 1.303s-2.66 2.018-3.167 3.35h-7.904v3.281h7.904zm34.913-4.653h6.587c.707.002 1.403.129 2.024.369s1.148.585 1.533 1.004h-3.557v3.281h3.557c-.385.419-.912.765-1.533 1.004s-1.317.366-2.024.369h-6.587c-.709.001-1.406-.125-2.028-.364s-1.148-.587-1.53-1.008h3.558v-3.28h-3.558c.385-.419.912-.764 1.533-1.004s1.317-.366 2.025-.369zm-26.349 0h6.587c.707.002 1.403.129 2.024.369s1.148.585 1.533 1.004h-3.557v3.281h3.557c-.385.419-.912.765-1.533 1.004s-1.317.366-2.024.369h-6.587c-.709.001-1.406-.125-2.028-.364s-1.148-.587-1.53-1.008h3.558v-3.28h-3.558c.385-.419.912-.764 1.533-1.004s1.317-.366 2.025-.369z"/></svg>