<svg xmlns="http://www.w3.org/2000/svg" width="66.667" height="66.667" viewBox="0 0 50 50" preserveAspectRatio="xMidYMid meet" xmlns:v="https://vecta.io/nano"><path d="M16.9 3.4C8 6.5 2 14.7 2 23.5c0 1.7 1.1 5.4 2.5 8.1 3 5.9 3.1 7 .5 11.2-3.5 5.7-.4 6.9 7.3 2.8 3.8-2.1 5.5-2.4 10-1.9 10 1 19-3.6 23.2-12 3.2-6.4 3.2-11 0-17.4C40.4 4.2 28-.6 16.9 3.4zm17.8 3c7.2 3.4 10.8 8.9 10.8 16.6 0 7.9-3.6 13.2-11.2 16.7-4.8 2.2-6.5 2.5-11.9 2-5.5-.5-6.9-.3-10.9 2-5.1 2.8-6.5 2.6-4.1-.9 2.2-3.2 2-5.9-1-11.5-5-9.4-1.2-20.2 8.9-24.9C22 3.3 28 3.3 34.7 6.4zm-19.1 6.7L13 20l-2 6.2c0 1.6 1.9.7 2.5-1.2.4-1.3 1.5-2 3-2s2.6.7 3 2c.6 1.8 2.5 2.9 2.5 1.4 0-1.3-4.3-12.9-5.1-13.8-.5-.6-1-.3-1.3.5zm2.4 7.1c0 .5-.7.8-1.5.8-1.7 0-1.8-.2-.9-2.5.5-1.3.8-1.4 1.5-.3.5.7.9 1.6.9 2zm14 .3c0 1-1 1.5-3 1.5-5.1 0-3.3 1.9 2.1 2.2l5.1.3-2 2.5c-2 2.5-2.1 2.5-3.6.5-.8-1.1-1.8-1.7-2.2-1.3-.4.5.1 1.7 1.1 2.8 1.7 1.9 1.7 2-.9 3.1-1.4.7-2.6 1.6-2.6 2.1 0 1.1 1.1 1 3.9-.6 2.1-1.2 2.8-1.2 4.8.1 3 2 4.4.8 1.5-1.2L34.1 31l2-3.5c1.2-1.9 2.5-3.5 3-3.5s.9-.5.9-1c0-.6-1.3-1-3-1-2 0-3-.5-3-1.5 0-.8-.4-1.5-1-1.5-.5 0-1 .7-1 1.5z"/></svg>