<svg xmlns="http://www.w3.org/2000/svg" width="100" height="100" fill="none" xmlns:v="https://vecta.io/nano"><path fill-rule="evenodd" d="M50 0c27.596 0 50 22.404 50 50s-22.404 50-50 50S0 77.596 0 50 22.404 0 50 0zm0 18.75c-8.487 0-9.551.036-12.884.188-3.326.152-5.598.68-7.586 1.453-2.055.799-3.798 1.867-5.535 3.605s-2.806 3.48-3.605 5.535c-.772 1.988-1.301 4.259-1.453 7.586-.152 3.333-.188 4.398-.188 12.884l.188 12.884c.152 3.326.68 5.598 1.453 7.585a15.32 15.32 0 0 0 3.605 5.535c1.737 1.737 3.48 2.806 5.535 3.605 1.988.772 4.26 1.301 7.586 1.452 3.333.152 4.398.188 12.884.188s9.551-.036 12.884-.188c3.326-.152 5.598-.68 7.585-1.452a15.32 15.32 0 0 0 5.535-3.605 15.32 15.32 0 0 0 3.605-5.535c.772-1.988 1.301-4.259 1.452-7.585.152-3.333.188-4.398.188-12.884l-.188-12.884c-.152-3.326-.68-5.598-1.452-7.585-.799-2.055-1.867-3.798-3.605-5.535a15.32 15.32 0 0 0-5.535-3.605c-1.988-.772-4.259-1.301-7.585-1.453-3.333-.152-4.398-.188-12.884-.188zm0 5.631l12.628.182c3.047.139 4.701.648 5.803 1.076 1.459.567 2.5 1.244 3.593 2.338s1.771 2.134 2.338 3.593c.428 1.101.937 2.756 1.076 5.803.15 3.295.182 4.284.182 12.628l-.182 12.628c-.139 3.047-.648 4.701-1.076 5.803a9.67 9.67 0 0 1-2.338 3.593 9.67 9.67 0 0 1-3.593 2.338c-1.101.428-2.756.937-5.803 1.076-3.295.15-4.283.182-12.628.182s-9.333-.032-12.628-.182c-3.047-.139-4.701-.648-5.803-1.076-1.459-.567-2.5-1.244-3.593-2.338s-1.771-2.134-2.338-3.593c-.428-1.101-.937-2.756-1.076-5.803-.15-3.295-.182-4.284-.182-12.628l.182-12.628c.139-3.047.648-4.701 1.076-5.803.567-1.459 1.244-2.5 2.338-3.593s2.134-1.771 3.593-2.338c1.101-.428 2.756-.937 5.803-1.076 3.295-.15 4.284-.182 12.628-.182zm0 9.572A16.05 16.05 0 0 0 33.953 50 16.05 16.05 0 0 0 50 66.047 16.05 16.05 0 0 0 66.047 50 16.05 16.05 0 0 0 50 33.953zm0 26.464A10.42 10.42 0 0 1 39.583 50 10.42 10.42 0 0 1 50 39.583 10.42 10.42 0 0 1 60.417 50 10.42 10.42 0 0 1 50 60.417zm20.431-27.098a3.75 3.75 0 1 1-7.5 0 3.75 3.75 0 1 1 7.5 0z" fill="#17a68c"/></svg>