<svg xmlns="http://www.w3.org/2000/svg" width="96" height="96" fill="none" xmlns:v="https://vecta.io/nano"><path d="M47.917 0C21.667 0 0 21.667 0 47.917c0 10 2.917 19.167 8.333 27.083L2.917 91.25c-.417.833 0 1.667.417 2.083.833.417 1.667.833 2.5.417L22.5 88.333c7.5 5 16.667 7.5 25.417 7.5 26.25 0 47.917-21.667 47.917-47.917S74.167 0 47.917 0zm28.75 67.5c-1.25 3.75-6.25 7.083-10.417 7.917-.833 0-1.667.417-2.917.417-3.333 0-7.5-1.25-14.167-3.75C40.833 68.75 32.5 61.25 25.833 51.667l-.417-.417c-2.5-3.333-6.25-9.167-6.25-15.417 0-7.083 3.75-10.833 5-12.5 1.667-1.667 3.75-2.5 6.25-2.5h1.25.417c2.083 0 3.333.833 4.583 3.333l.833 1.667c1.25 2.917 2.917 7.5 3.333 8.333.833 1.667.833 2.917 0 4.167-.417.833-.833 1.667-1.667 2.5-.417.417-.833.833-.833 1.25l-1.25 1.25v.417c1.25 2.083 3.75 5.833 7.083 8.75 4.583 4.167 7.917 5.417 9.583 6.25h.417c.417 0 .833.417.833 0 .833-.833 1.667-2.5 2.917-3.75l.417-.417c1.25-1.667 2.917-2.083 3.75-2.083.417 0 1.25 0 1.667.417.417 0 1.25.417 9.167 4.583l.833.417c1.25.417 2.083.833 2.5 2.083 1.667.833 1.25 4.583.417 7.5z" fill="#17a68c"/></svg>