<svg xmlns="http://www.w3.org/2000/svg" width="100" height="98" fill="none" xmlns:v="https://vecta.io/nano"><path d="M50 0C22.375 0 0 22.375 0 50c0 22.125 14.313 40.813 34.188 47.438 2.5.438 3.438-1.062 3.438-2.375l-.062-9.312C25 88.063 21.75 82.688 20.75 79.875c-.562-1.437-3-5.875-5.125-7.062-1.75-.937-4.25-3.25-.062-3.312 3.938-.062 6.75 3.625 7.688 5.125 4.5 7.563 11.688 5.438 14.563 4.125.438-3.25 1.75-5.437 3.188-6.687-11.125-1.25-22.75-5.562-22.75-24.687 0-5.437 1.938-9.937 5.125-13.437-.5-1.25-2.25-6.375.5-13.25 0 0 4.188-1.312 13.75 5.125 4-1.125 8.25-1.687 12.5-1.687s8.5.563 12.5 1.688c9.563-6.5 13.75-5.125 13.75-5.125 2.75 6.875 1 12 .5 13.25C80.063 37.438 82 41.875 82 47.375c0 19.188-11.687 23.438-22.812 24.688 1.813 1.563 3.375 4.563 3.375 9.25l-.062 13.75c0 1.313.938 2.875 3.438 2.375 9.926-3.35 18.552-9.729 24.663-18.239S99.998 60.477 100 50c0-27.625-22.375-50-50-50z" fill="#17a68c"/></svg>