<svg xmlns="http://www.w3.org/2000/svg" width="100" height="100" fill="none" xmlns:v="https://vecta.io/nano"><path fill-rule="evenodd" d="M50 0C21.831 0 0 20.634 0 48.502c0 14.578 5.976 27.173 15.704 35.876.815.734 1.308 1.75 1.348 2.847l.272 8.893a4.01 4.01 0 0 0 5.614 3.541l9.92-4.377a3.99 3.99 0 0 1 2.666-.201c4.557 1.258 9.417 1.922 14.477 1.922 28.169 0 50-20.634 50-48.502S78.169 0 50 0zM19.98 62.687l14.688-23.3a7.51 7.51 0 0 1 10.845-2.002l11.68 8.763c1.076.805 2.545.795 3.612-.01L76.58 34.166c2.103-1.6 4.859.926 3.441 3.159l-14.678 23.29a7.51 7.51 0 0 1-10.845 2.002l-11.68-8.763c-1.077-.805-2.545-.795-3.612.01L23.421 65.846c-2.102 1.6-4.859-.926-3.441-3.159z" fill="#041112"/></svg>