<svg xmlns="http://www.w3.org/2000/svg" width="22" height="22" fill="none" xmlns:v="https://vecta.io/nano"><path d="M21 15.92v3a2 2 0 0 1-.648 1.482 2 2 0 0 1-1.532.518 19.79 19.79 0 0 1-8.63-3.07 19.5 19.5 0 0 1-6-6 19.79 19.79 0 0 1-3.07-8.67 2 2 0 0 1 .515-1.528A2 2 0 0 1 3.11 1h3a2 2 0 0 1 2 1.72 12.84 12.84 0 0 0 .7 2.81 2 2 0 0 1-.45 2.11L7.09 8.91a16 16 0 0 0 6 6l1.27-1.27a2 2 0 0 1 2.11-.45c.907.339 1.85.573 2.81.7A2 2 0 0 1 21 15.92z" stroke="#17a68c" stroke-width="2" stroke-linejoin="round"/></svg>