<svg xmlns="http://www.w3.org/2000/svg" width="85.333" height="85.333" viewBox="0 0 64 64" preserveAspectRatio="xMidYMid meet" xmlns:v="https://vecta.io/nano"><path d="M49.7 5c-1.4 1.1-2.9 2.9-3.2 4-.4 1.1-1.5 2-2.6 2-1.7 0-1.9.8-1.9 10v10h-2.6c-2.4 0-2.5-.2-1.3-1.7 1.2-1.4 1.2-1.6 0-1.2-.8.3-1.9 1.3-2.5 2.2-.8 1.3-.6 2.2 1.3 3.9 1.9 1.8 2.2 1.9 1.8.5-.5-1.2-.1-1.7 1.3-1.7 1.9 0 2 .7 2 10 0 8.8.2 10 1.8 10 .9.1 2.6 1.5 3.7 3.3 4 6.3 12.3 5.8 15.1-1 1.9-4.5 0-9.4-4.6-11.3-4.3-1.8-7.9-.4-10.9 4.2-1.3 2.1-2.8 3.5-3.2 3.2-.5-.3-.9-4.5-.9-9.5 0-9.9 1-11.2 4.5-5.6 4 6.3 12.3 5.8 15.1-1 1.9-4.5 0-9.4-4.6-11.3-4.2-1.7-7.9-.4-10.5 3.7C44 33.3 43 32 43 22c0-9.8 1.1-11.4 4.2-6 4.5 7.8 15.8 5.4 15.8-3.4 0-4.8-.8-6.5-4.1-8.1-3.8-2-6.2-1.9-9.2.5zM60 7.2c4.3 4.6 1 11.8-5.5 11.8-3.6 0-7.5-3.6-7.5-7 0-1 .9-2.9 2.1-4.4C51.8 4.2 57 4 60 7.2zm0 20c4.3 4.6 1 11.8-5.5 11.8-3.6 0-7.5-3.6-7.5-7 0-1 .9-2.9 2.1-4.4 2.7-3.4 7.9-3.6 10.9-.4zm0 20c4.3 4.6 1 11.8-5.5 11.8-3.6 0-7.5-3.6-7.5-7 0-1 .9-2.9 2.1-4.4 2.7-3.4 7.9-3.6 10.9-.4zM55.5 11c-.4.6-1.5.8-2.6.5-1.4-.5-1.7-.3-1.3.9.8 2.2 2.7 2 4.9-.4 1-1.1 1.3-2 .7-2s-1.4.5-1.7 1zm-3.1 21c0 1.1.8 1.7 2.1 1.7s2.1-.6 2.1-1.7-.8-1.8-2.1-1.8-2.1.7-2.1 1.8zm3.1 19c-.4.6-1.5.8-2.6.5-1.4-.5-1.7-.3-1.3.9.8 2.2 2.7 2 4.9-.4 1-1.1 1.3-2 .7-2s-1.4.5-1.7 1zM13.3 16C-1.2 19.3-4.1 38.8 8.9 46.4c4 2.3 11.6 2.4 15.9.2 4.9-2.5 8.4-8.6 8.4-14.4 0-11.1-9.2-18.6-19.9-16.2zm10.3 2.6c7.1 3.4 10.3 12.6 6.9 19.8-1.9 4-2.7 4.3-4.5 2.1-.7-.8-2.1-1.5-3.2-1.5-1.7 0-1.7-.3.7-3.7 3.4-5.1 3.2-8.5-.7-12.2-5-4.7-10.7-4-13.6 1.6-1.8 3.4-1.4 6.7 1.3 10.7 2.2 3.3 2.3 3.6.6 3.6-1 0-2.4.7-3.1 1.5-1.8 2.2-2.6 1.9-4.5-2.1-6-12.7 7.4-25.8 20.1-19.8zM19.1 22c1 .6 1.9 1.5 1.9 2.1s-.5.7-1 .4c-.6-.3-1.3.1-1.6 1-.9 2.2-8.4 6-8.5 4.3-.3-2.9.3-4.4 2.7-6.6 2.8-2.5 3.7-2.6 6.5-1.2zm5.9 7.2c0 2-1.8.5-2.3-1.9-.5-2.6-.4-2.6.9-.8.8 1 1.4 2.2 1.4 2.7zm-3.2.7c.4 3.5-2 7.1-4.6 7.1-1.8 0-5.2-2.9-5.2-4.4 0-.6 1.4-1.7 3.1-2.5 1.7-.7 3.3-2 3.6-2.8.9-2.4 2.8-.8 3.1 2.6zM19 39.5c0 .8-.9 1.5-2 1.5s-2-.7-2-1.5.9-1.5 2-1.5 2 .7 2 1.5zm-5 2c.7.8 2.1 1.5 3.2 1.5 1 0 2.1-.7 2.4-1.5.8-2 3.8-1.9 5.4.1 2.4 2.7-1.1 4.9-8 4.9s-10.4-2.2-8-4.9c1.6-2 3.4-2 5-.1z"/></svg>