<?xml version="1.0" standalone="no"?>
<!DOCTYPE svg PUBLIC "-//W3C//DTD SVG 20010904//EN"
 "http://www.w3.org/TR/2001/REC-SVG-20010904/DTD/svg10.dtd">
<svg version="1.0" xmlns="http://www.w3.org/2000/svg"
 width="64.000000pt" height="64.000000pt" viewBox="0 0 64.000000 64.000000"
 preserveAspectRatio="xMidYMid meet">

<g transform="translate(0.000000,64.000000) scale(0.100000,-0.100000)"
fill="#000000" stroke="none">
<path d="M497 590 c-14 -11 -29 -29 -32 -40 -4 -11 -15 -20 -26 -20 -17 0 -19
-8 -19 -100 l0 -100 -26 0 c-24 0 -25 2 -13 17 12 14 12 16 0 12 -8 -3 -19
-13 -25 -22 -8 -13 -6 -22 13 -39 19 -18 22 -19 18 -5 -5 12 -1 17 13 17 19 0
20 -7 20 -100 0 -88 2 -100 18 -100 9 -1 26 -15 37 -33 40 -63 123 -58 151 10
19 45 0 94 -46 113 -43 18 -79 4 -109 -42 -13 -21 -28 -35 -32 -32 -5 3 -9 45
-9 95 0 99 10 112 45 56 40 -63 123 -58 151 10 19 45 0 94 -46 113 -42 17 -79
4 -105 -37 -35 -56 -45 -43 -45 57 0 98 11 114 42 60 45 -78 158 -54 158 34 0
48 -8 65 -41 81 -38 20 -62 19 -92 -5z m103 -22 c43 -46 10 -118 -55 -118 -36
0 -75 36 -75 70 0 10 9 29 21 44 27 34 79 36 109 4z m0 -200 c43 -46 10 -118
-55 -118 -36 0 -75 36 -75 70 0 10 9 29 21 44 27 34 79 36 109 4z m0 -200 c43
-46 10 -118 -55 -118 -36 0 -75 36 -75 70 0 10 9 29 21 44 27 34 79 36 109 4z"/>
<path d="M555 530 c-4 -6 -15 -8 -26 -5 -14 5 -17 3 -13 -9 8 -22 27 -20 49 4
10 11 13 20 7 20 -6 0 -14 -5 -17 -10z"/>
<path d="M524 320 c0 -11 8 -17 21 -17 13 0 21 6 21 17 0 11 -8 18 -21 18 -13
0 -21 -7 -21 -18z"/>
<path d="M555 130 c-4 -6 -15 -8 -26 -5 -14 5 -17 3 -13 -9 8 -22 27 -20 49 4
10 11 13 20 7 20 -6 0 -14 -5 -17 -10z"/>
<path d="M133 480 c-145 -33 -174 -228 -44 -304 40 -23 116 -24 159 -2 49 25
84 86 84 144 0 111 -92 186 -199 162z m103 -26 c71 -34 103 -126 69 -198 -19
-40 -27 -43 -45 -21 -7 8 -21 15 -32 15 -17 0 -17 3 7 37 34 51 32 85 -7 122
-50 47 -107 40 -136 -16 -18 -34 -14 -67 13 -107 22 -33 23 -36 6 -36 -10 0
-24 -7 -31 -15 -18 -22 -26 -19 -45 21 -60 127 74 258 201 198z m-45 -34 c10
-6 19 -15 19 -21 0 -6 -5 -7 -10 -4 -6 3 -13 -1 -16 -10 -9 -22 -84 -60 -85
-43 -3 29 3 44 27 66 28 25 37 26 65 12z m59 -72 c0 -20 -18 -5 -23 19 -5 26
-4 26 9 8 8 -10 14 -22 14 -27z m-32 -7 c4 -35 -20 -71 -46 -71 -18 0 -52 29
-52 44 0 6 14 17 31 25 17 7 33 20 36 28 9 24 28 8 31 -26z m-28 -96 c0 -8 -9
-15 -20 -15 -11 0 -20 7 -20 15 0 8 9 15 20 15 11 0 20 -7 20 -15z m-50 -20
c7 -8 21 -15 32 -15 10 0 21 7 24 15 8 20 38 19 54 -1 24 -27 -11 -49 -80 -49
-69 0 -104 22 -80 49 16 20 34 20 50 1z"/>
</g>
</svg>
