<svg xmlns="http://www.w3.org/2000/svg" viewBox="0 0 64 64" xmlns:v="https://vecta.io/nano"><path d="M51.314 14.929l-4.243-4.243-2.331 1.399a10.78 10.78 0 0 0-1.081-.448L43 9h-6l-.659 2.637a11.27 11.27 0 0 0-1.081.448l-2.331-1.399-4.243 4.243 1.399 2.331a10.78 10.78 0 0 0-.448 1.081L27 19v6l2.637.659a11.27 11.27 0 0 0 .448 1.081l-1.399 2.331 4.243 4.243 2.331-1.399a10.78 10.78 0 0 0 1.081.448L37 35h6l.659-2.637a11.27 11.27 0 0 0 1.081-.448l2.331 1.399 4.243-4.243-1.399-2.331a10.78 10.78 0 0 0 .448-1.081L53 25v-6l-2.637-.659a11.27 11.27 0 0 0-.448-1.081l1.399-2.331z" fill="#ffcb57"/><path d="M39 2h2v4h-2zm0 40h2v20h-2zm0-4h2v2h-2z" fill="#e56565"/><g fill="#3f3a34"><path d="M55.122 8.512C51.05 3.738 44.899 1 38.249 1h-6.468c-3.475 0-6.685.699-9.542 2.079C14.689 6.723 10 14.16 10 22.485a8.35 8.35 0 0 1-3.15 6.554l-2.178 1.742.486.758c3.348 5.222 5.831 10.915 7.38 16.921l.312 1.209c.537 2.084 1.875 3.775 3.67 4.64 1.987.959 4.326.91 6.271-.143L37.49 45.87l-.982-1.742-14.684 8.287c-1.366.74-3.024.774-4.436.093-1.264-.609-2.213-1.826-2.603-3.339l-.312-1.209c-.083-.322-.179-.64-.267-.961H17v-2h-3.379c-1.515-4.839-3.62-9.461-6.299-13.777l.778-.621a10.34 10.34 0 0 0 3.9-8.116c0-7.552 4.257-14.297 11.108-17.605C25.692 3.632 28.61 3 31.781 3h6.468c6.063 0 11.659 2.482 15.352 6.81 3.589 4.206 5.062 9.668 4.152 15.38a19.02 19.02 0 0 1-2.564 6.973C49.831 40.906 47 50.443 47 59.743V61H29v-8h-2v10h22v-3.257c0-8.931 2.729-18.106 7.894-26.535 1.439-2.35 2.394-4.941 2.834-7.703 1.004-6.3-.631-12.335-4.606-16.993zM15 26h6v2h-6zm31-4a6.01 6.01 0 0 0-6-6 6.01 6.01 0 0 0-6 6 6.01 6.01 0 0 0 6 6 6.01 6.01 0 0 0 6-6zm-6 4c-2.206 0-4-1.794-4-4s1.794-4 4-4 4 1.794 4 4-1.794 4-4 4zm-4.674 7.041l.171.071.722 2.888h7.562l.722-2.888.171-.071 2.553 1.531 5.346-5.347-1.53-2.552.07-.171L54 25.781v-7.562l-2.888-.722-.296-.669-1.803.864c.152.318.288.646.407.982l.179.506 2.4.6v4.438l-2.4.6-.179.506c-.119.336-.255.664-.407.982l-.233.485 1.274 2.123-3.139 3.138-2.122-1.273-.484.231a9.8 9.8 0 0 1-.982.407l-.508.179-.6 2.404h-4.438l-.601-2.401-.508-.179a9.8 9.8 0 0 1-.982-.407l-.484-.231-2.122 1.273-3.69-3.69-1.414 1.414 4.794 4.794 2.552-1.532z"/><path d="M26 18.219v7.562l2.888.722.296.669 1.803-.864c-.152-.318-.288-.646-.407-.982l-.18-.507-2.4-.6v-4.438l2.4-.6.179-.506c.119-.336.255-.664.407-.982l.232-.485-1.273-2.123 3.139-3.139 2.122 1.273.484-.231a9.8 9.8 0 0 1 .982-.407l.508-.179.601-2.402h4.438l.601 2.401.508.179a9.8 9.8 0 0 1 .982.407l.484.231 2.122-1.273 3.69 3.69 1.414-1.414-4.794-4.795-2.553 1.532-.171-.071L43.781 8h-7.562l-.722 2.887-.171.071-2.553-1.532-5.346 5.347 1.53 2.553-.07.171-2.887.722zM39 12h2v2h-2zm-6.779 3.635l1.414-1.414 1.414 1.414-1.414 1.414zM30 21h2v2h-2zm2.221 7.365l1.414-1.414 1.414 1.414-1.414 1.414zM39 30h2v2h-2zm5.949-1.638l1.414-1.414 1.414 1.414-1.414 1.414zM48 21h2v2h-2zm-3.05-5.362l1.414-1.414 1.414 1.414-1.414 1.414z"/></g></svg>